<svg xmlns="http://www.w3.org/2000/svg" width="278" height="278" viewBox="0 0 278 278">
  <g id="favicon" transform="translate(5348 -1202)">
    <rect id="Retângulo_2629" data-name="Retângulo 2629" width="278" height="278" transform="translate(-5348 1202)" fill="#fcd64f"/>
    <g id="Grupo_4547" data-name="Grupo 4547" transform="translate(-5405.527 1204)">
      <path id="Caminho_3855" data-name="Caminho 3855" d="M53.1,19.394c0-7.85,1.847-12.929,6-15.7A27.418,27.418,0,0,1,73.419,0l7.388.462c12.006,0,20.317,1.847,25.4,6,4.618,4.156,7.388,11.544,7.388,22.626v88.2c0,20.317-6,36.017-17.547,46.176S66.955,178.7,44.329,178.7C14.776,178.238,0,168.08,0,147.762l.462-7.388c1.385-7.388,6-11.082,14.314-11.082,3.232,0,5.079,0,6,.462s3.232.462,6.926.462c8.773,0,15.238-2.309,18.932-6.465,4.156-4.156,6-11.082,6-19.856v-84.5Z" transform="translate(140 48)" fill="#231f20"/>
    </g>
  </g>
</svg>
