<svg xmlns="http://www.w3.org/2000/svg" width="94.311" height="25" viewBox="0 0 94.311 25">
  <g id="Grupo_3561" data-name="Grupo 3561" transform="translate(-140 -48)">
    <path id="Caminho_3855" data-name="Caminho 3855" d="M5.843,2.134A1.9,1.9,0,0,1,6.5.407,3.017,3.017,0,0,1,8.079,0l.813.051a4.431,4.431,0,0,1,2.795.661A3.236,3.236,0,0,1,12.5,3.2v9.705a6.475,6.475,0,0,1-1.931,5.081,8.456,8.456,0,0,1-5.691,1.677C1.626,19.614,0,18.5,0,16.26l.051-.813a1.4,1.4,0,0,1,1.575-1.22,1.935,1.935,0,0,1,.661.051,2.517,2.517,0,0,0,.762.051,2.708,2.708,0,0,0,2.083-.711,3.042,3.042,0,0,0,.661-2.185v-9.3Z" transform="translate(140 48)" fill="#fcd64f"/>
    <path id="Caminho_3856" data-name="Caminho 3856" d="M45.526,17.022a10.011,10.011,0,0,1-7.266,2.591,9.667,9.667,0,0,1-7.165-2.642A9.41,9.41,0,0,1,28.3,9.807a11.778,11.778,0,0,1,.711-4.065,8.438,8.438,0,0,1,2.033-3.15A10.219,10.219,0,0,1,38.259,0a11.477,11.477,0,0,1,4.014.661,9.43,9.43,0,0,1,3.2,1.982,8.865,8.865,0,0,1,2.033,3.15,11.282,11.282,0,0,1,.711,4.014,9.581,9.581,0,0,1-2.693,7.215M35.82,13.313a2.969,2.969,0,0,0,2.49,1.27,2.706,2.706,0,0,0,2.439-1.27,6.335,6.335,0,0,0,.864-3.557,6.152,6.152,0,0,0-.864-3.506,2.864,2.864,0,0,0-2.49-1.22,2.925,2.925,0,0,0-2.49,1.22,6.152,6.152,0,0,0-.864,3.506,5.829,5.829,0,0,0,.915,3.557" transform="translate(126.08 48)" fill="#fcd64f"/>
    <g id="Grupo_3444" data-name="Grupo 3444" transform="translate(176.179 48)">
      <path id="Caminho_3848" data-name="Caminho 3848" d="M89.239,3.252a4.278,4.278,0,0,0-1.27-1.27A11.681,11.681,0,0,0,81.058,0a10.384,10.384,0,0,0-7.215,2.388A8.645,8.645,0,0,0,71.2,9.1a9.44,9.44,0,0,0,1.626,5.691c.051.1.1.152.152.254.051.051.051.1.1.152h0a3.881,3.881,0,0,0,.457.457,8.314,8.314,0,0,0,4.827,1.728l4.98.508v.254c0,1.27-1.067,1.931-3.2,2.033A2.517,2.517,0,0,0,81.007,25a10.671,10.671,0,0,0,6.3-1.778,6.028,6.028,0,0,0,2.337-5.183V4.827a3.411,3.411,0,0,0-.407-1.575M78.568,6.1A3.528,3.528,0,0,1,81.363,5.03a6.342,6.342,0,0,1,1.067.1c.661.152.965.813.965,1.982v3.811c0,1.22-.407,1.931-1.169,2.083a3.888,3.888,0,0,1-1.27.152,2.916,2.916,0,0,1-2.439-1.067,4.9,4.9,0,0,1-.864-3.1,4.3,4.3,0,0,1,.915-2.9" transform="translate(-71.2)" fill="#fcd64f"/>
    </g>
    <path id="Caminho_3857" data-name="Caminho 3857" d="M129.139,3.252a4.278,4.278,0,0,0-1.27-1.27A11.681,11.681,0,0,0,120.958,0a10.384,10.384,0,0,0-7.215,2.388A8.645,8.645,0,0,0,111.1,9.1a9.439,9.439,0,0,0,1.626,5.691c.051.1.1.152.152.254.051.051.051.1.1.152h0a3.881,3.881,0,0,0,.457.457,8.314,8.314,0,0,0,4.827,1.728l4.98.508v.254c0,1.27-1.067,1.931-3.2,2.033A2.517,2.517,0,0,0,120.907,25a10.671,10.671,0,0,0,6.3-1.778,6.028,6.028,0,0,0,2.337-5.183V4.827a3.411,3.411,0,0,0-.406-1.575M118.468,6.1a3.528,3.528,0,0,1,2.795-1.067,6.343,6.343,0,0,1,1.067.1c.661.152.965.813.965,1.982v3.811c0,1.22-.407,1.931-1.169,2.083a3.888,3.888,0,0,1-1.27.152,2.916,2.916,0,0,1-2.439-1.067,4.9,4.9,0,0,1-.864-3.1,4.3,4.3,0,0,1,.915-2.9" transform="translate(85.353 48)" fill="#fcd64f"/>
    <path id="Caminho_3858" data-name="Caminho 3858" d="M166.246,1.778A11.048,11.048,0,0,0,159.945,0a2.52,2.52,0,0,0-2.388,2.541,2.6,2.6,0,0,0,1.524,2.337c2.134.1,3.2.762,3.2,2.033v.254l-4.98.508A8.457,8.457,0,0,0,152.475,9.4a5.2,5.2,0,0,0-1.575,4.014,5.276,5.276,0,0,0,2.287,4.624,11.294,11.294,0,0,0,6.5,1.575,13.775,13.775,0,0,0,6.961-1.474,3.826,3.826,0,0,0,1.423-1.22,2.469,2.469,0,0,0,.457-1.524V6.961a5.869,5.869,0,0,0-2.287-5.183m-3.862,12.652a3.232,3.232,0,0,1-1.067.356,7.755,7.755,0,0,1-1.524.152c-1.728,0-2.591-.559-2.591-1.728,0-.965.813-1.474,2.439-1.575l2.744-.2v3Z" transform="translate(65.777 48)" fill="#fcd64f"/>
  </g>
</svg>
