<svg id="Grupo_3557" data-name="Grupo 3557" xmlns="http://www.w3.org/2000/svg" xmlns:xlink="http://www.w3.org/1999/xlink" width="205.913" height="61" viewBox="0 0 205.913 61">
  <defs>
    <filter id="Elipse_11966" x="1.859" y="3" width="58" height="58" filterUnits="userSpaceOnUse">
      <feOffset dy="3" input="SourceAlpha"/>
      <feGaussianBlur stdDeviation="3" result="blur"/>
      <feFlood flood-color="#0c4a2f" flood-opacity="0.161"/>
      <feComposite operator="in" in2="blur"/>
      <feComposite in="SourceGraphic"/>
    </filter>
  </defs>
  <path id="Caminho_3970" data-name="Caminho 3970" d="M25.116,0H180.8c13.871,0,25.116,12.76,25.116,28.5S194.668,57,180.8,57H25.116C11.245,57,0,44.24,0,28.5S11.245,0,25.116,0Z" fill="#1162db"/>
  <g id="Grupo_3549" data-name="Grupo 3549" transform="translate(10.803 8.522)">
    <g transform="matrix(1, 0, 0, 1, -10.8, -8.52)" filter="url(#Elipse_11966)">
      <circle id="Elipse_11966-2" data-name="Elipse 11966" cx="20" cy="20" r="20" transform="translate(10.86 9)" fill="#337dec"/>
    </g>
    <g id="phone3" transform="translate(9.682 10.182)">
      <path id="Caminho_1" data-name="Caminho 1" d="M19.772,15.344q-.084-.253-1.069-.743-.267-.155-.759-.422t-.893-.5q-.4-.225-.753-.433-.056-.042-.352-.248a3.953,3.953,0,0,0-.5-.3.921.921,0,0,0-.4-.1,1.167,1.167,0,0,0-.7.4,6.849,6.849,0,0,0-.774.872,8.478,8.478,0,0,1-.743.872,1.072,1.072,0,0,1-.647.4.957.957,0,0,1-.317-.07c-.124-.047-.223-.087-.288-.119s-.178-.1-.337-.2-.248-.152-.267-.162a14.781,14.781,0,0,1-3.305-2.447A14.773,14.773,0,0,1,5.217,8.848Q5.2,8.82,5.055,8.58t-.2-.338a3.048,3.048,0,0,1-.119-.288.952.952,0,0,1-.071-.316,1.072,1.072,0,0,1,.4-.647,8.471,8.471,0,0,1,.872-.743,6.846,6.846,0,0,0,.87-.778,1.167,1.167,0,0,0,.4-.706.918.918,0,0,0-.1-.4,3.91,3.91,0,0,0-.3-.5q-.2-.3-.248-.352-.211-.352-.433-.753l-.5-.894q-.267-.492-.421-.756Q4.722.123,4.469.042A.788.788,0,0,0,4.174,0a4.634,4.634,0,0,0-.99.14,5.57,5.57,0,0,0-.965.293A3.771,3.771,0,0,0,.727,2.151,5.453,5.453,0,0,0,.01,4.765a5.431,5.431,0,0,0,.05.743,6.065,6.065,0,0,0,.176.8q.124.45.2.668t.288.78q.211.563.253.689A12.74,12.74,0,0,0,2.148,10.91,20.856,20.856,0,0,0,5.18,14.631,20.865,20.865,0,0,0,8.9,17.664a12.761,12.761,0,0,0,2.462,1.167q.124.042.689.253t.78.288q.218.077.668.2a6.123,6.123,0,0,0,.809.176,5.218,5.218,0,0,0,3.355-.668,3.768,3.768,0,0,0,1.716-1.491,5.539,5.539,0,0,0,.3-.964,4.624,4.624,0,0,0,.14-.99.784.784,0,0,0-.043-.3Z" transform="translate(-0.01 0.002)" fill="#fff"/>
    </g>
  </g>
  <text id="_81_0000-0000" data-name="(81) 0000-0000" transform="translate(57.859 41)" fill="#fff" font-size="17" font-family="Quicksand-Bold, Quicksand" font-weight="700"><tspan x="0" y="0">(81) 0000-0000</tspan></text>
  <text id="Ligue_agora" data-name="Ligue agora" transform="translate(57.859 21)" fill="#fff" font-size="12" font-family="Quicksand-Bold, Quicksand" font-weight="700" letter-spacing="-0.025em"><tspan x="0" y="0">LIGUE AGORA</tspan></text>
</svg>
