<svg xmlns="http://www.w3.org/2000/svg" xmlns:xlink="http://www.w3.org/1999/xlink" width="414" height="70" viewBox="0 0 414 70">
  <defs>
    <filter id="Elipse_11966" x="211" y="9" width="58" height="58" filterUnits="userSpaceOnUse">
      <feOffset dy="3" input="SourceAlpha"/>
      <feGaussianBlur stdDeviation="3" result="blur"/>
      <feFlood flood-color="#0c4a2f" flood-opacity="0.161"/>
      <feComposite operator="in" in2="blur"/>
      <feComposite in="SourceGraphic"/>
    </filter>
    <filter id="Elipse_11966-2" x="4" y="9" width="58" height="58" filterUnits="userSpaceOnUse">
      <feOffset dy="3" input="SourceAlpha"/>
      <feGaussianBlur stdDeviation="3" result="blur-2"/>
      <feFlood flood-color="#0c4a2f" flood-opacity="0.161"/>
      <feComposite operator="in" in2="blur-2"/>
      <feComposite in="SourceGraphic"/>
    </filter>
  </defs>
  <g id="Grupo_4576" data-name="Grupo 4576" transform="translate(0 -666)">
    <rect id="Ret창ngulo_2638" data-name="Ret창ngulo 2638" width="207" height="70" transform="translate(0 666)" fill="#1162db"/>
    <rect id="Ret창ngulo_2639" data-name="Ret창ngulo 2639" width="207" height="70" transform="translate(207 666)" fill="#03c969"/>
    <g id="Grupo_4563" data-name="Grupo 4563" transform="translate(220.037 680.522)">
      <g transform="matrix(1, 0, 0, 1, -220.04, -14.52)" filter="url(#Elipse_11966)">
        <circle id="Elipse_11966-3" data-name="Elipse 11966" cx="20" cy="20" r="20" transform="translate(220 15)" fill="#00e676"/>
      </g>
      <path id="whatsapp3" d="M21.4,3.6A12.338,12.338,0,0,0,.353,12.266,12.2,12.2,0,0,0,2,18.4L.25,24.755,6.784,23.05a12.36,12.36,0,0,0,5.89,1.493h0A12.316,12.316,0,0,0,25.006,12.275,12.162,12.162,0,0,0,21.4,3.6ZM12.68,22.473h0a10.268,10.268,0,0,1-5.212-1.422l-.373-.222L3.21,21.841l1.032-3.762L4,17.693a10.228,10.228,0,1,1,8.683,4.778Zm5.62-7.636c-.309-.153-1.822-.895-2.1-1s-.488-.153-.693.153-.8,1-.975,1.2-.359.23-.667.077a8.421,8.421,0,0,1-2.476-1.521,9.252,9.252,0,0,1-1.713-2.123c-.179-.309,0-.457.135-.626a8.672,8.672,0,0,0,.77-1.048.561.561,0,0,0-.026-.537c-.077-.153-.693-1.662-.949-2.276-.248-.6-.5-.517-.693-.526S8.523,6.6,8.317,6.6a1.134,1.134,0,0,0-.821.384A3.431,3.431,0,0,0,6.418,9.545a5.948,5.948,0,0,0,1.258,3.171,13.7,13.7,0,0,0,5.261,4.628,17.683,17.683,0,0,0,1.756.646,4.242,4.242,0,0,0,1.94.124,3.176,3.176,0,0,0,2.079-1.457A2.55,2.55,0,0,0,18.89,15.2c-.077-.128-.282-.2-.59-.358Zm0,0" transform="translate(7.964 7.601)" fill="#fff" fill-rule="evenodd"/>
    </g>
    <text id="Whatsapp" transform="translate(272 707)" fill="#fff" font-size="15" font-family="Quicksand-Bold, Quicksand" font-weight="700"><tspan x="0" y="0">WHATSAPP</tspan></text>
    <g id="Grupo_3549" data-name="Grupo 3549" transform="translate(12.943 680.522)">
      <g transform="matrix(1, 0, 0, 1, -12.94, -14.52)" filter="url(#Elipse_11966-2)">
        <circle id="Elipse_11966-4" data-name="Elipse 11966" cx="20" cy="20" r="20" transform="translate(13 15)" fill="#337dec"/>
      </g>
      <g id="phone3" transform="translate(9.682 10.182)">
        <path id="Caminho_1" data-name="Caminho 1" d="M19.772,15.344q-.084-.253-1.069-.743-.267-.155-.759-.422t-.893-.5q-.4-.225-.753-.433-.056-.042-.352-.248a3.953,3.953,0,0,0-.5-.3.921.921,0,0,0-.4-.1,1.167,1.167,0,0,0-.7.4,6.849,6.849,0,0,0-.774.872,8.478,8.478,0,0,1-.743.872,1.072,1.072,0,0,1-.647.4.957.957,0,0,1-.317-.07c-.124-.047-.223-.087-.288-.119s-.178-.1-.337-.2-.248-.152-.267-.162a14.781,14.781,0,0,1-3.305-2.447A14.773,14.773,0,0,1,5.217,8.848Q5.2,8.82,5.055,8.58t-.2-.338a3.048,3.048,0,0,1-.119-.288.952.952,0,0,1-.071-.316,1.072,1.072,0,0,1,.4-.647,8.471,8.471,0,0,1,.872-.743,6.846,6.846,0,0,0,.87-.778,1.167,1.167,0,0,0,.4-.706.918.918,0,0,0-.1-.4,3.91,3.91,0,0,0-.3-.5q-.2-.3-.248-.352-.211-.352-.433-.753l-.5-.894q-.267-.492-.421-.756Q4.722.123,4.469.042A.788.788,0,0,0,4.174,0a4.634,4.634,0,0,0-.99.14,5.57,5.57,0,0,0-.965.293A3.771,3.771,0,0,0,.727,2.151,5.453,5.453,0,0,0,.01,4.765a5.431,5.431,0,0,0,.05.743,6.065,6.065,0,0,0,.176.8q.124.45.2.668t.288.78q.211.563.253.689A12.74,12.74,0,0,0,2.148,10.91,20.856,20.856,0,0,0,5.18,14.631,20.865,20.865,0,0,0,8.9,17.664a12.761,12.761,0,0,0,2.462,1.167q.124.042.689.253t.78.288q.218.077.668.2a6.123,6.123,0,0,0,.809.176,5.218,5.218,0,0,0,3.355-.668,3.768,3.768,0,0,0,1.716-1.491,5.539,5.539,0,0,0,.3-.964,4.624,4.624,0,0,0,.14-.99.784.784,0,0,0-.043-.3Z" transform="translate(-0.01 0.002)" fill="#fff"/>
      </g>
    </g>
    <text id="Ligue_agora" data-name="Ligue agora" transform="translate(64 707)" fill="#fff" font-size="15" font-family="Quicksand-Bold, Quicksand" font-weight="700"><tspan x="0" y="0">LIGUE AGORA</tspan></text>
  </g>
</svg>
